<svg width="21" height="35" viewBox="0 0 21 35" fill="none" xmlns="http://www.w3.org/2000/svg">
<g id="Group 6">
<path id="Vector" d="M15.6913 31.8742C14.3031 32.879 12.9601 33.8562 11.6031 34.8437C11.6089 34.8587 11.5508 34.7784 11.55 34.6976C11.524 32.0614 11.4745 29.4177 12.1492 26.8412C12.481 25.5742 13.2014 24.5425 14.2446 23.6993C16.27 22.0623 18.5286 20.8431 20.9767 19.6605C20.9767 20.7124 21.0378 21.6504 20.9621 22.5773C20.8541 23.8977 20.7469 25.2325 20.4581 26.5204C19.9326 28.864 18.234 30.3028 16.2921 31.5025C16.1068 31.6169 15.9218 31.7319 15.6913 31.8742Z" fill="#7519EB"/>
<path id="Vector_2" d="M8.56868 34.2975C7.17054 33.2984 5.86457 32.2424 4.43612 31.3923C1.5782 29.6913 0.167948 27.1948 0.0438373 23.9305C-0.00828187 22.5598 0.0351621 21.1853 0.0351621 19.7231C2.28146 20.7688 4.3585 21.9241 6.29036 23.3634C8.2869 24.851 9.13755 26.8618 9.20633 29.2552C9.25982 31.1163 9.21703 32.9801 9.21703 34.9212C9.027 34.7386 8.81623 34.5362 8.56868 34.2975Z" fill="#A259FF"/>
<path id="Vector_3" d="M0.00033866 9.09053C-5.04894e-09 8.68433 0 8.34808 0 7.94934C0.195839 7.99236 0.341154 7.99168 0.451578 8.05341C2.20295 9.03246 3.9805 9.96949 5.69002 11.0174C7.83761 12.3338 8.98198 14.3373 9.17356 16.8253C9.32939 18.849 9.34317 20.8837 9.42747 23.1125C8.67915 22.4767 8.12172 21.9229 7.48687 21.48C6.05992 20.4846 4.57059 19.5781 3.15078 18.573C1.29196 17.2572 0.388403 15.3671 0.182317 13.1458C0.059603 11.8231 0.0571802 10.4893 0.00033866 9.09053Z" fill="#A259FF"/>
<path id="Vector_4" d="M12.2236 14.7387C12.8374 13.7875 13.3102 12.7657 14.0582 12.0198C15.9726 10.1109 18.461 9.0904 20.9876 7.82678C20.9876 8.40434 21.0144 8.8522 20.9828 9.29589C20.8694 10.8853 20.8285 12.4872 20.5899 14.0586C20.1898 16.6931 18.4534 18.3837 16.2552 19.65C14.6313 20.5855 13.08 21.6015 11.7946 22.9829C11.753 23.0276 11.6781 23.0414 11.4634 23.1434C11.5596 21.0497 11.6187 19.0525 11.7592 17.0611C11.813 16.2986 12.0529 15.5491 12.2236 14.7387Z" fill="#A259FF"/>
<path id="Vector_5" d="M11.709 11.1398C11.2761 11.7467 10.8736 12.3098 10.4031 12.968C9.14595 10.9522 7.69237 9.13478 7.77332 6.72544C7.80567 5.76233 8.10201 4.77084 8.4614 3.86495C8.96326 2.59996 9.63679 1.40307 10.2369 0.177032C10.344 0.118021 10.4511 0.0590107 10.5582 0C10.6668 0.217764 10.7677 0.439855 10.8854 0.652612C11.8687 2.42977 12.8748 4.18847 13.1696 6.25666C13.328 7.36752 13.0272 8.36382 12.6234 9.34762C12.3761 9.94995 12.0371 10.5146 11.709 11.1398Z" fill="#A259FF"/>
</g>
</svg>
