<svg width="414" height="896" viewBox="0 0 414 896" fill="none" xmlns="http://www.w3.org/2000/svg">
<g clip-path="url(#clip0_260_183)">
<rect width="413.793" height="896" rx="22.069" fill="#8423FF"/>
<path d="M56.6899 532.463C-33.517 480.915 247.613 312.65 230.488 202.3C214.093 96.6596 83.7504 28.2581 149.33 -75.5304C251.203 -236.757 660.423 -3.31563 711.449 149.13C768.755 320.34 207.35 618.558 56.6899 532.463Z" fill="#7E19FF"/>
<path d="M671.811 334.614C565.848 352.311 516.988 267.7 427.34 208.523C341.518 151.872 244.251 142.417 223.613 41.7045C191.554 -114.745 454.628 -185.634 599.809 -118.977C762.861 -44.1152 848.787 305.056 671.811 334.614Z" fill="#6F12E7" fill-opacity="0.8"/>
<path d="M738.811 309.614C632.848 327.311 583.988 242.7 494.34 183.523C408.518 126.872 311.251 117.417 290.613 16.7045C258.554 -139.745 521.628 -210.634 666.809 -143.977C829.861 -69.1152 915.787 280.056 738.811 309.614Z" fill="#581CA6"/>
<path d="M0 452.483C0 437.857 11.8567 426 26.4828 426H387.517C402.143 426 414 437.857 414 452.483V896H0V452.483Z" fill="#F6F5F5"/>
<circle cx="206.5" cy="422.5" r="76.5" fill="#CDFFB6" fill-opacity="0.2"/>
<circle cx="206.5" cy="422.5" r="57.5" fill="#CDFFB6" fill-opacity="0.2"/>
<circle cx="206.5" cy="422.5" r="36.5" fill="#CDFFB6"/>
<path d="M211.691 436.874C210.303 437.879 208.96 438.856 207.603 439.844C207.609 439.859 207.551 439.778 207.55 439.698C207.524 437.061 207.475 434.418 208.149 431.841C208.481 430.574 209.201 429.542 210.245 428.699C212.27 427.062 214.529 425.843 216.977 424.661C216.977 425.712 217.038 426.65 216.962 427.577C216.854 428.898 216.747 430.232 216.458 431.52C215.933 433.864 214.234 435.303 212.292 436.502C212.107 436.617 211.922 436.732 211.691 436.874Z" fill="#7519EB"/>
<path d="M204.569 439.298C203.171 438.298 201.865 437.242 200.436 436.392C197.578 434.691 196.168 432.195 196.044 428.931C195.992 427.56 196.035 426.185 196.035 424.723C198.281 425.769 200.359 426.924 202.29 428.363C204.287 429.851 205.138 431.862 205.206 434.255C205.26 436.116 205.217 437.98 205.217 439.921C205.027 439.739 204.816 439.536 204.569 439.298Z" fill="#A259FF"/>
<path d="M196 414.091C196 413.684 196 413.348 196 412.949C196.196 412.992 196.341 412.992 196.452 413.053C198.203 414.032 199.981 414.969 201.69 416.017C203.838 417.334 204.982 419.337 205.174 421.825C205.329 423.849 205.343 425.884 205.427 428.113C204.679 427.477 204.122 426.923 203.487 426.48C202.06 425.485 200.571 424.578 199.151 423.573C197.292 422.257 196.388 420.367 196.182 418.146C196.06 416.823 196.057 415.489 196 414.091Z" fill="#A259FF"/>
<path d="M208.224 419.739C208.837 418.787 209.31 417.766 210.058 417.02C211.973 415.111 214.461 414.09 216.988 412.827C216.988 413.404 217.014 413.852 216.983 414.296C216.869 415.885 216.828 417.487 216.59 419.059C216.19 421.693 214.453 423.384 212.255 424.65C210.631 425.586 209.08 426.602 207.795 427.983C207.753 428.028 207.678 428.041 207.463 428.143C207.56 426.05 207.619 424.053 207.759 422.061C207.813 421.299 208.053 420.549 208.224 419.739Z" fill="#A259FF"/>
<path d="M207.709 416.14C207.276 416.747 206.874 417.31 206.403 417.968C205.146 415.952 203.692 414.135 203.773 411.725C203.806 410.762 204.102 409.771 204.461 408.865C204.963 407.6 205.637 406.403 206.237 405.177C206.344 405.118 206.451 405.059 206.558 405C206.667 405.218 206.768 405.44 206.885 405.653C207.869 407.43 208.875 409.188 209.17 411.257C209.328 412.368 209.027 413.364 208.623 414.348C208.376 414.95 208.037 415.515 207.709 416.14Z" fill="#A259FF"/>
</g>
<defs>
<clipPath id="clip0_260_183">
<rect width="413.793" height="896" rx="22.069" fill="white"/>
</clipPath>
</defs>
</svg>
