<svg width="16" height="17" viewBox="0 0 16 17" fill="none" xmlns="http://www.w3.org/2000/svg">
<g id="bi:stars" clip-path="url(#clip0_782_4377)">
<path id="Vector" d="M7.42489 6.83818C7.52916 6.52537 7.97089 6.52537 8.07516 6.83818L8.68657 8.6743C8.82114 9.07792 9.04788 9.44465 9.34882 9.74542C9.64975 10.0462 10.0166 10.2727 10.4203 10.4071L12.2555 11.0185C12.5683 11.1228 12.5683 11.5645 12.2555 11.6688L10.4194 12.2802C10.0157 12.4148 9.649 12.6415 9.34823 12.9424C9.04746 13.2434 8.82092 13.6102 8.68657 14.0139L8.07516 15.8491C8.05268 15.9176 8.00914 15.9772 7.95075 16.0195C7.89237 16.0618 7.82212 16.0846 7.75002 16.0846C7.67793 16.0846 7.60768 16.0618 7.54929 16.0195C7.49091 15.9772 7.44737 15.9176 7.42489 15.8491L6.81348 14.013C6.679 13.6094 6.4524 13.2428 6.15164 12.942C5.85088 12.6413 5.48421 12.4147 5.08069 12.2802L3.24458 11.6688C3.17608 11.6463 3.11643 11.6027 3.07414 11.5444C3.03185 11.486 3.00908 11.4157 3.00908 11.3436C3.00908 11.2715 3.03185 11.2013 3.07414 11.1429C3.11643 11.0845 3.17608 11.041 3.24458 11.0185L5.08069 10.4071C5.48421 10.2726 5.85088 10.046 6.15164 9.74525C6.4524 9.44449 6.679 9.07782 6.81348 8.6743L7.42489 6.83818ZM3.76309 2.00476C3.77668 1.96371 3.80286 1.92799 3.83792 1.90267C3.87297 1.87735 3.91512 1.86372 3.95836 1.86372C4.0016 1.86372 4.04374 1.87735 4.0788 1.90267C4.11385 1.92799 4.14003 1.96371 4.15363 2.00476L4.52047 3.10624C4.68446 3.59726 5.06932 3.98211 5.56034 4.1461L6.66182 4.51295C6.70287 4.52654 6.73859 4.55272 6.76391 4.58778C6.78923 4.62283 6.80285 4.66497 6.80285 4.70822C6.80285 4.75146 6.78923 4.7936 6.76391 4.82866C6.73859 4.86371 6.70287 4.88989 6.66182 4.90349L5.56034 5.27033C5.31803 5.35075 5.09784 5.48664 4.91731 5.66717C4.73678 5.8477 4.60089 6.06788 4.52047 6.31019L4.15363 7.41167C4.14003 7.45272 4.11385 7.48845 4.0788 7.51377C4.04374 7.53908 4.0016 7.55271 3.95836 7.55271C3.91512 7.55271 3.87297 7.53908 3.83792 7.51377C3.80286 7.48845 3.77668 7.45272 3.76309 7.41167L3.39624 6.31019C3.31582 6.06788 3.17994 5.8477 2.99941 5.66717C2.81888 5.48664 2.59869 5.35075 2.35638 5.27033L1.2549 4.90349C1.21385 4.88989 1.17813 4.86371 1.15281 4.82866C1.12749 4.7936 1.11386 4.75146 1.11386 4.70822C1.11386 4.66497 1.12749 4.62283 1.15281 4.58778C1.17813 4.55272 1.21385 4.52654 1.2549 4.51295L2.35638 4.1461C2.59869 4.06568 2.81888 3.9298 2.99941 3.74927C3.17994 3.56874 3.31582 3.34855 3.39624 3.10624L3.76309 2.00476ZM10.4639 1.01039C10.4733 0.983402 10.4908 0.959998 10.5141 0.943434C10.5373 0.92687 10.5652 0.917969 10.5938 0.917969C10.6223 0.917969 10.6502 0.92687 10.6735 0.943434C10.6967 0.959998 10.7143 0.983402 10.7236 1.01039L10.9682 1.74408C11.0772 2.07206 11.3341 2.32895 11.6621 2.43796L12.3958 2.68252C12.4228 2.69188 12.4462 2.70941 12.4627 2.73268C12.4793 2.75596 12.4882 2.78382 12.4882 2.81238C12.4882 2.84095 12.4793 2.86881 12.4627 2.89208C12.4462 2.91535 12.4228 2.93289 12.3958 2.94225L11.6621 3.18681C11.5006 3.24084 11.3539 3.33164 11.2334 3.45205C11.113 3.57246 11.0222 3.7192 10.9682 3.88068L10.7236 4.61437C10.7143 4.64136 10.6967 4.66477 10.6735 4.68133C10.6502 4.6979 10.6223 4.7068 10.5938 4.7068C10.5652 4.7068 10.5373 4.6979 10.5141 4.68133C10.4908 4.66477 10.4733 4.64136 10.4639 4.61437L10.2193 3.88068C10.1653 3.7192 10.0745 3.57246 9.9541 3.45205C9.83369 3.33164 9.68696 3.24084 9.52547 3.18681L8.79273 2.94225C8.76574 2.93289 8.74234 2.91535 8.72577 2.89208C8.70921 2.86881 8.70031 2.84095 8.70031 2.81238C8.70031 2.78382 8.70921 2.75596 8.72577 2.73268C8.74234 2.70941 8.76574 2.69188 8.79273 2.68252L9.52642 2.43796C9.8544 2.32895 10.1113 2.07206 10.2203 1.74408L10.4639 1.01039Z" fill="#A259FF"/>
</g>
<defs>
<clipPath id="clip0_782_4377">
<rect width="15.1667" height="15.1667" fill="white" transform="translate(0.166687 0.916748)"/>
</clipPath>
</defs>
</svg>
