<svg width="16" height="13" viewBox="0 0 16 13" fill="none" xmlns="http://www.w3.org/2000/svg">
<path id="Vector" fill-rule="evenodd" clip-rule="evenodd" d="M8.46857 0.458231C8.41591 0.382786 8.34581 0.321172 8.26423 0.278628C8.18265 0.236084 8.09201 0.213867 8 0.213867C7.90799 0.213867 7.81735 0.236084 7.73577 0.278628C7.65419 0.321172 7.58409 0.382786 7.53143 0.458231L3.92229 5.6148L0.976001 2.66737C0.896081 2.58725 0.794171 2.53266 0.68319 2.51053C0.572209 2.4884 0.457155 2.49971 0.352614 2.54305C0.248073 2.58638 0.158753 2.65978 0.0959778 2.75394C0.0332023 2.8481 -0.000201559 2.95878 9.1503e-07 3.07194V10.5005C9.1503e-07 11.1067 0.240817 11.6881 0.669471 12.1168C1.09813 12.5454 1.67951 12.7862 2.28571 12.7862H13.7143C14.3205 12.7862 14.9019 12.5454 15.3305 12.1168C15.7592 11.6881 16 11.1067 16 10.5005V3.07194C16.0002 2.95878 15.9668 2.8481 15.904 2.75394C15.8412 2.65978 15.7519 2.58638 15.6474 2.54305C15.5428 2.49971 15.4278 2.4884 15.3168 2.51053C15.2058 2.53266 15.1039 2.58725 15.024 2.66737L12.0777 5.6148L8.46857 0.458231Z" fill="#FFC700"/>
</svg>
