<svg width="173" height="202" viewBox="0 0 173 202" fill="none" xmlns="http://www.w3.org/2000/svg">
<g clip-path="url(#clip0_591_24)">
<path d="M73.8772 182.035C77.4559 181.644 80.0405 178.426 79.6499 174.848C79.2593 171.269 76.0416 168.684 72.4628 169.075C68.8841 169.465 66.2995 172.683 66.6901 176.262C67.0806 179.841 70.2984 182.425 73.8772 182.035Z" stroke="#7519EB" stroke-width="13.0368" stroke-linecap="round" stroke-linejoin="round"/>
<path d="M145.156 174.256C148.735 173.865 151.32 170.648 150.929 167.069C150.538 163.49 147.321 160.906 143.742 161.296C140.163 161.687 137.579 164.905 137.969 168.483C138.36 172.062 141.577 174.647 145.156 174.256Z" stroke="#7519EB" stroke-width="13.0368" stroke-linecap="round" stroke-linejoin="round"/>
<path d="M7.18711 51.6137L33.1068 48.785L59.942 133.656C60.8602 136.575 62.7756 139.077 65.3531 140.726C67.9305 142.375 71.0057 143.064 74.0404 142.674L137.025 135.801C140.073 135.527 142.927 134.19 145.088 132.024C147.249 129.858 148.58 127.002 148.847 123.954L153.281 68.4555L43.1226 80.4775" stroke="#7519EB" stroke-width="13.0368" stroke-linecap="round" stroke-linejoin="round"/>
</g>
<path d="M82.5199 14.1146C82.2306 12.7624 80.9044 11.9037 79.5522 12.1929C78.2 12.4822 77.3412 13.8084 77.6305 15.1606L81.8144 34.7181C82.1037 36.0703 83.4298 36.9291 84.7821 36.6398C86.1343 36.3505 86.993 35.0243 86.7038 33.6721L82.5199 14.1146ZM86.874 46.4185C87.6845 46.2452 88.3929 45.7569 88.8433 45.0612C89.2938 44.3656 89.4495 43.5194 89.2761 42.709C89.1028 41.8985 88.6145 41.1901 87.9188 40.7396C87.2232 40.2891 86.377 40.1334 85.5665 40.3068C84.7561 40.4802 84.0477 40.9684 83.5972 41.6641C83.1467 42.3598 82.991 43.206 83.1644 44.0164C83.3378 44.8269 83.826 45.5353 84.5217 45.9858C85.2174 46.4362 86.0635 46.5919 86.874 46.4185Z" fill="#0BCE83"/>
<path d="M113.756 12.9545C113.944 11.5846 115.203 10.6298 116.573 10.818C117.943 11.0061 118.898 12.265 118.71 13.6349L115.988 33.4489C115.8 34.8188 114.541 35.7736 113.171 35.5854C111.801 35.3972 110.846 34.1384 111.035 32.7685L113.756 12.9545ZM111.81 45.4924C110.989 45.3796 110.247 44.9453 109.746 44.2849C109.245 43.6246 109.027 42.7923 109.14 41.9712C109.252 41.1501 109.687 40.4075 110.347 39.9066C111.007 39.4058 111.84 39.1877 112.661 39.3005C113.482 39.4133 114.225 39.8477 114.725 40.508C115.226 41.1684 115.444 42.0006 115.332 42.8217C115.219 43.6428 114.784 44.3855 114.124 44.8863C113.464 45.3872 112.631 45.6052 111.81 45.4924Z" fill="#0BCE83"/>
<path d="M100.313 2.52147C100.262 1.13961 99.1041 0.0646585 97.7222 0.115981C96.3404 0.167304 95.2654 1.32519 95.3167 2.70705L96.4302 32.6864C96.4815 34.0682 97.6394 35.1432 99.0212 35.0919C100.403 35.0405 101.478 33.8827 101.427 32.5008L100.313 2.52147ZM99.3924 45.085C100.221 45.0542 101.003 44.6957 101.567 44.0883C102.13 43.4809 102.43 42.6744 102.399 41.8461C102.368 41.0179 102.01 40.2358 101.403 39.6719C100.795 39.108 99.9886 38.8085 99.1604 38.8393C98.3322 38.87 97.5501 39.2286 96.9862 39.836C96.4223 40.4434 96.1228 41.2499 96.1535 42.0781C96.1843 42.9063 96.5428 43.6884 97.1502 44.2523C97.7576 44.8162 98.5641 45.1157 99.3924 45.085Z" fill="#0BCE83"/>
<defs>
<clipPath id="clip0_591_24">
<rect width="156.441" height="156.441" fill="white" transform="translate(0 45.8411) rotate(-6.22822)"/>
</clipPath>
</defs>
</svg>
