<svg width="60" height="63" viewBox="0 0 60 63" fill="none" xmlns="http://www.w3.org/2000/svg">
<g id="heart" filter="url(#filter0_d_600_2616)">
<path id="Vector" d="M39.8572 32.619V33.7143H20.1429V32.619L22.3334 30.4286V23.8571C22.3334 20.4619 24.5567 17.4719 27.8095 16.5081V16.1905C27.8095 15.6095 28.0403 15.0524 28.4511 14.6416C28.8619 14.2308 29.4191 14 30 14C30.581 14 31.1381 14.2308 31.5489 14.6416C31.9597 15.0524 32.1905 15.6095 32.1905 16.1905V16.5081C35.4434 17.4719 37.6667 20.4619 37.6667 23.8571V30.4286L39.8572 32.619ZM32.1905 34.8095C32.1905 35.3905 31.9597 35.9476 31.5489 36.3584C31.1381 36.7692 30.581 37 30 37C29.4191 37 28.8619 36.7692 28.4511 36.3584C28.0403 35.9476 27.8095 35.3905 27.8095 34.8095" fill="#7519EB"/>
</g>
<defs>
<filter id="filter0_d_600_2616" x="-2" y="-0.5" width="64" height="64" filterUnits="userSpaceOnUse" color-interpolation-filters="sRGB">
<feFlood flood-opacity="0" result="BackgroundImageFix"/>
<feColorMatrix in="SourceAlpha" type="matrix" values="0 0 0 0 0 0 0 0 0 0 0 0 0 0 0 0 0 0 127 0" result="hardAlpha"/>
<feOffset dy="6"/>
<feGaussianBlur stdDeviation="10"/>
<feColorMatrix type="matrix" values="0 0 0 0 0.458824 0 0 0 0 0.0980392 0 0 0 0 0.921569 0 0 0 0.4 0"/>
<feBlend mode="normal" in2="BackgroundImageFix" result="effect1_dropShadow_600_2616"/>
<feBlend mode="normal" in="SourceGraphic" in2="effect1_dropShadow_600_2616" result="shape"/>
</filter>
</defs>
</svg>
