<svg width="16" height="17" viewBox="0 0 16 17" fill="none" xmlns="http://www.w3.org/2000/svg">
<path d="M8.68701 1.76139C8.30151 1.39692 7.69849 1.39692 7.31299 1.76139L2.46948 6.34073C2.1698 6.62407 2 7.01829 2 7.4307V12.9999C2 13.8284 2.67157 14.4999 3.5 14.4999H5C5.82843 14.4999 6.5 13.8284 6.5 12.9999V10.5C6.5 10.2238 6.72386 9.99997 7 9.99997H9C9.27614 9.99997 9.5 10.2238 9.5 10.5V12.9999C9.5 13.8284 10.1716 14.4999 11 14.4999H12.5C13.3284 14.4999 14 13.8284 14 12.9999V7.4307C14 7.01829 13.8302 6.62407 13.5305 6.34073L8.68701 1.76139Z" fill="#7519EB"/>
</svg>
