<svg width="25" height="25" viewBox="0 0 25 25" fill="none" xmlns="http://www.w3.org/2000/svg">
<g id="material-symbols:chat-outline">
<path id="Vector" d="M6.14285 14.5H14.1429V12.5H6.14285V14.5ZM6.14285 11.5H18.1429V9.5H6.14285V11.5ZM6.14285 8.5H18.1429V6.5H6.14285V8.5ZM2.14285 22.5V4.5C2.14285 3.95 2.33885 3.47933 2.73085 3.088C3.12285 2.69667 3.59352 2.50067 4.14285 2.5H20.1429C20.6929 2.5 21.1639 2.696 21.5559 3.088C21.9479 3.48 22.1435 3.95067 22.1429 4.5V16.5C22.1429 17.05 21.9472 17.521 21.5559 17.913C21.1645 18.305 20.6935 18.5007 20.1429 18.5H6.14285L2.14285 22.5ZM5.29285 16.5H20.1429V4.5H4.14285V17.625L5.29285 16.5Z" fill="#888888"/>
</g>
</svg>
