<svg width="27" height="27" viewBox="0 0 27 27" fill="none" xmlns="http://www.w3.org/2000/svg">
<path d="M14.5958 1.55415C14.3052 1.26357 13.911 1.10033 13.5 1.10033C13.089 1.10033 12.6948 1.26357 12.4041 1.55415L1.55414 12.4042C1.27179 12.6965 1.11556 13.088 1.11909 13.4944C1.12263 13.9008 1.28564 14.2896 1.57302 14.577C1.8604 14.8644 2.24916 15.0274 2.65557 15.0309C3.06197 15.0344 3.45351 14.8782 3.74584 14.5959L4.19999 14.1417V24.35C4.19999 24.7611 4.36329 25.1553 4.65397 25.446C4.94466 25.7367 5.3389 25.9 5.74999 25.9H8.84999C9.26108 25.9 9.65532 25.7367 9.946 25.446C10.2367 25.1553 10.4 24.7611 10.4 24.35V21.25C10.4 20.8389 10.5633 20.4447 10.854 20.154C11.1447 19.8633 11.5389 19.7 11.95 19.7H15.05C15.4611 19.7 15.8553 19.8633 16.146 20.154C16.4367 20.4447 16.6 20.8389 16.6 21.25V24.35C16.6 24.7611 16.7633 25.1553 17.054 25.446C17.3447 25.7367 17.7389 25.9 18.15 25.9H21.25C21.6611 25.9 22.0553 25.7367 22.346 25.446C22.6367 25.1553 22.8 24.7611 22.8 24.35V14.1417L23.2541 14.5959C23.5465 14.8782 23.938 15.0344 24.3444 15.0309C24.7508 15.0274 25.1396 14.8644 25.427 14.577C25.7143 14.2896 25.8774 13.9008 25.8809 13.4944C25.8844 13.088 25.7282 12.6965 25.4458 12.4042L14.5958 1.55415V1.55415Z" stroke="#888888" stroke-width="2"/>
</svg>
