<svg width="24" height="25" viewBox="0 0 24 25" fill="none" xmlns="http://www.w3.org/2000/svg">
<path d="M20.84 5.11C20.3292 4.599 19.7228 4.19364 19.0554 3.91708C18.3879 3.64052 17.6725 3.49817 16.95 3.49817C16.2275 3.49817 15.5121 3.64052 14.8446 3.91708C14.1772 4.19364 13.5708 4.599 13.06 5.11L12 6.17L10.94 5.11C9.9083 4.07831 8.50903 3.49871 7.05 3.49871C5.59096 3.49871 4.19169 4.07831 3.16 5.11C2.1283 6.14169 1.54871 7.54097 1.54871 9C1.54871 10.459 2.1283 11.8583 3.16 12.89L4.22 13.95L12 21.73L19.78 13.95L20.84 12.89C21.351 12.3792 21.7563 11.7728 22.0329 11.1054C22.3095 10.4379 22.4518 9.72249 22.4518 9C22.4518 8.27751 22.3095 7.5621 22.0329 6.89464C21.7563 6.22718 21.351 5.62075 20.84 5.11V5.11Z" stroke="#888888" stroke-width="2" stroke-linecap="round" stroke-linejoin="round"/>
</svg>
