<svg width="200" height="173" viewBox="0 0 200 173" fill="none" xmlns="http://www.w3.org/2000/svg">
<path d="M28.0908 95.0146L28.0904 95.0111C27.916 93.413 28.3168 91.9771 29.2998 90.7532C30.2785 89.5348 31.5956 88.8387 33.1977 88.6638L50.3623 86.7906L47.2921 58.6584L28.2919 26.6116L28.2854 26.6007L28.2855 26.6006C27.5269 25.2702 27.3408 23.7935 27.6942 22.2157C28.0526 20.6156 28.9093 19.3921 30.2698 18.6199C31.6057 17.8617 33.0851 17.6748 34.6634 18.0283L34.6645 18.0285C36.2557 18.3874 37.4732 19.2425 38.2449 20.5974L59.1412 55.5595L175.456 42.8657L155.714 10.7793L155.706 10.7666L155.699 10.7535C154.949 9.41789 154.766 7.94279 155.12 6.37183C155.479 4.77173 156.335 3.54822 157.696 2.77604C159.032 2.01781 160.511 1.83091 162.089 2.18442L162.09 2.18466C163.681 2.54349 164.899 3.39827 165.67 4.75261L186.215 38.8592C186.89 39.908 187.432 41.0026 187.838 42.1424C187.838 42.1431 187.839 42.1438 187.839 42.1445L187.132 42.3963C187.528 43.4967 187.791 44.642 187.921 45.832L198.378 141.645C198.697 144.571 197.971 147.136 196.2 149.34C194.429 151.545 192.078 152.807 189.146 153.127L21.5424 171.418C20.1263 171.573 18.8907 171.224 17.8355 170.37L28.0908 95.0146ZM28.0908 95.0146C28.273 96.6147 28.9724 97.9322 30.1888 98.9162C31.4077 99.9022 32.845 100.302 34.4487 100.127L51.6133 98.254M28.0908 95.0146L51.6133 98.254M22.6397 126.797C22.6391 126.797 22.6386 126.798 22.638 126.799C21.6532 128.017 21.2537 129.454 21.4286 131.057C21.6036 132.66 22.304 133.979 23.528 134.963C24.7467 135.948 26.1836 136.348 27.7869 136.173L55.4224 133.157L57.9804 156.596L20.3727 160.701C18.7706 160.875 17.4535 161.572 16.4748 162.79C15.4918 164.014 15.091 165.45 15.2654 167.048C15.4404 168.652 16.1412 169.971 17.3659 170.955L26.6173 125.455C25.2012 125.61 24.0697 126.214 23.2228 127.268L22.6397 126.797ZM22.6397 126.797C23.6182 125.58 24.9347 124.884 26.5359 124.709L54.1713 121.694M22.6397 126.797L54.1713 121.694M54.1713 121.694L51.6133 98.254M54.1713 121.694L51.6133 98.254M102.764 97.7173L142.653 93.3641L145.965 90.795L146.55 91.2647C146.55 91.2644 146.551 91.2642 146.551 91.2639C147.534 90.0394 147.933 88.6002 147.758 86.9969C147.583 85.3936 146.883 84.0767 145.658 83.0993C144.44 82.1212 143.004 81.7259 141.402 81.9007L101.513 86.2539C99.9152 86.4283 98.5995 87.1294 97.6165 88.3532C96.6329 89.5779 96.2332 91.0174 96.4082 92.6211C96.5832 94.2248 97.2839 95.542 98.5096 96.5195C99.733 97.4951 101.168 97.8915 102.764 97.7173ZM177.988 54.1893L187.62 142.448L69.4438 155.345L59.8118 67.0862L177.988 54.1893Z" fill="#7519EB" stroke="#7519EB" stroke-width="1.5"/>
<path d="M33.2144 87.8037C29.3712 88.2229 26.5954 91.6782 27.0146 95.5214C27.4337 99.3646 30.889 102.14 34.7322 101.721L33.2144 87.8037ZM49.5917 86.0176L33.2144 87.8037L34.7322 101.721L51.1095 99.9351L49.5917 86.0176Z" fill="#0BCE83"/>
<path d="M26.8473 123.343C23.0042 123.763 20.2291 127.219 20.649 131.062C21.0689 134.905 24.5248 137.68 28.3679 137.261L26.8473 123.343ZM53.2695 120.457L26.8473 123.343L28.3679 137.261L54.79 134.374L53.2695 120.457Z" fill="#0BCE83"/>
<path d="M20.0343 159.021C16.1916 159.446 13.4208 162.905 13.8453 166.748C14.2699 170.59 17.7291 173.361 21.5717 172.936L20.0343 159.021ZM57.1047 154.925L20.0343 159.021L21.5717 172.936L58.6422 168.841L57.1047 154.925Z" fill="#0BCE83"/>
</svg>
