<svg width="18" height="15" viewBox="0 0 18 15" fill="none" xmlns="http://www.w3.org/2000/svg">
<path d="M0.727273 0.227081C0.534388 0.227081 0.349403 0.303705 0.213013 0.440095C0.0766231 0.576485 0 0.761469 0 0.954354C0 1.14724 0.0766231 1.33222 0.213013 1.46861C0.349403 1.605 0.534388 1.68163 0.727273 1.68163H2.34182L4.25018 9.31799C4.41236 9.96526 4.992 10.4089 5.65891 10.4089H14.728C15.3847 10.4089 15.9425 9.97254 16.1149 9.33981L18 2.4089H16.4771L14.7273 8.95435H5.65818L3.75055 1.31799C3.67174 1.0047 3.49009 0.72692 3.23468 0.529128C2.97926 0.331335 2.66486 0.224976 2.34182 0.227081H0.727273ZM13.8182 10.4089C12.6218 10.4089 11.6364 11.3944 11.6364 12.5907C11.6364 13.7871 12.6218 14.7725 13.8182 14.7725C15.0145 14.7725 16 13.7871 16 12.5907C16 11.3944 15.0145 10.4089 13.8182 10.4089ZM7.27273 10.4089C6.07636 10.4089 5.09091 11.3944 5.09091 12.5907C5.09091 13.7871 6.07636 14.7725 7.27273 14.7725C8.46909 14.7725 9.45455 13.7871 9.45455 12.5907C9.45455 11.3944 8.46909 10.4089 7.27273 10.4089ZM9.45455 0.227081V3.86344H7.27273L10.1818 6.77254L13.0909 3.86344H10.9091V0.227081H9.45455ZM7.27273 11.8634C7.68291 11.8634 8 12.1805 8 12.5907C8 13.0009 7.68291 13.318 7.27273 13.318C6.86255 13.318 6.54545 13.0009 6.54545 12.5907C6.54545 12.1805 6.86255 11.8634 7.27273 11.8634ZM13.8182 11.8634C14.2284 11.8634 14.5455 12.1805 14.5455 12.5907C14.5455 13.0009 14.2284 13.318 13.8182 13.318C13.408 13.318 13.0909 13.0009 13.0909 12.5907C13.0909 12.1805 13.408 11.8634 13.8182 11.8634Z" fill="#7519EB"/>
</svg>
