<svg width="29" height="28" viewBox="0 0 29 28" fill="none" xmlns="http://www.w3.org/2000/svg">
<g id="mdi:package-delivered">
<path id="Vector" d="M7.5 3.5C6.91667 3.5 6.45 3.73333 6.1 4.2L4.58333 6.06667C4.23333 6.53333 4 7 4 7.58333V22.1667C4 23.45 5.05 24.5 6.33333 24.5H16.0167C15.7833 23.8 15.6667 22.9833 15.6667 22.1667C15.6667 18.3167 18.8167 15.1667 22.6667 15.1667C23.4833 15.1667 24.3 15.2833 25 15.5167V7.58333C25 7 24.7667 6.53333 24.4167 6.06667L22.7833 4.08333C22.55 3.73333 22.0833 3.5 21.5 3.5H7.5ZM7.38333 4.66667H21.3833L22.4333 5.83333H6.45L7.38333 4.66667ZM7.5 17.5H14.5V21H7.5V17.5ZM25.35 18.4333L21.15 22.6333L19.2833 20.7667L18 22.1667L21.2667 25.6667L26.8667 20.0667L25.35 18.4333Z" fill="#0BCE83"/>
</g>
</svg>
