<svg width="20" height="17" viewBox="0 0 20 17" fill="none" xmlns="http://www.w3.org/2000/svg">
<path id="Vector" d="M4.72371 14.6207L4.72376 14.6207C5.8461 14.7809 7.38308 14.7853 9.67495 14.7853H10.3972C12.69 14.7853 14.226 14.7809 15.3484 14.6207L15.3484 14.6207C16.4249 14.4673 16.8004 14.2102 17.0194 13.9466C17.2386 13.6819 17.4225 13.2655 17.3753 12.1789C17.3258 11.0457 17.0463 9.53557 16.6239 7.28287C16.3221 5.675 16.1226 4.6232 15.8752 3.84624M4.72371 14.6207L6.15871 2.21841C6.96729 2.11883 8.03917 2.11549 9.67394 2.11549H10.3982C12.033 2.11549 13.1049 2.11882 13.9134 2.21842C14.6756 2.31235 14.9958 2.47201 15.2112 2.65062C15.4264 2.82913 15.6422 3.11519 15.8752 3.84624M4.72371 14.6207C3.64689 14.4673 3.27151 14.21 3.05253 13.9464C2.83361 13.6829 2.64966 13.2656 2.69686 12.179L4.72371 14.6207ZM15.8752 3.84624L16.0516 3.79004M15.8752 3.84624C15.8752 3.84624 15.8752 3.84625 15.8752 3.84625L16.0516 3.79004M16.0516 3.79004C16.3034 4.58047 16.505 5.64576 16.8059 7.2487M16.0516 3.79004C15.8129 3.04072 15.5822 2.71773 15.3294 2.50808C15.0766 2.29844 14.7175 2.13092 13.9361 2.03462C13.1136 1.93331 12.0282 1.9303 10.3982 1.9303H9.67394L16.8059 7.2487M16.8059 7.2487C17.2272 9.49563 17.5101 11.0213 17.5603 12.1709L16.8059 7.2487ZM4.86116 2.65045C4.64555 2.83017 4.42974 3.11562 4.19695 3.84625C3.95045 4.6223 3.74999 5.67524 3.4482 7.28283C3.02581 9.53555 2.74631 11.0457 2.69687 12.1789L4.86116 2.65045ZM4.86116 2.65045C5.07648 2.47194 5.39767 2.31233 6.15867 2.21842L4.86116 2.65045ZM6.88582 3.55425L6.88577 3.55426C6.65141 3.63717 6.45957 3.80977 6.35244 4.0341C6.24531 4.25844 6.23167 4.51613 6.31452 4.75052L6.31452 4.75053C6.58664 5.52024 7.09069 6.18666 7.75727 6.65801C8.42385 7.12936 9.22017 7.38246 10.0366 7.38246C10.853 7.38246 11.6493 7.12936 12.3158 6.65801C12.982 6.18695 13.4859 5.52107 13.7581 4.75197C13.8011 4.63579 13.8207 4.51223 13.8157 4.38843C13.8106 4.26412 13.7809 4.14206 13.7282 4.02937C13.6755 3.91667 13.6009 3.81558 13.5088 3.732C13.4166 3.64842 13.3088 3.58401 13.1915 3.54254C13.0742 3.50106 12.9498 3.48335 12.8256 3.49042C12.7014 3.4975 12.5798 3.52923 12.468 3.58376C12.3562 3.63828 12.2563 3.71452 12.1743 3.80803C12.0926 3.90113 12.0301 4.0095 11.9906 4.12687C11.8477 4.5306 11.5832 4.88017 11.2335 5.1275C10.8835 5.3751 10.4653 5.50806 10.0366 5.50806C9.60781 5.50806 9.18961 5.3751 8.83958 5.1275C8.48954 4.87991 8.2249 4.52986 8.08211 4.12559L8.08208 4.1255C7.99917 3.89113 7.82657 3.69929 7.60224 3.59217C7.37791 3.48504 7.12021 3.4714 6.88582 3.55425ZM3.66351 1.20801L3.66344 1.20806C3.06926 1.7016 2.70258 2.36115 2.41075 3.27783C2.12104 4.18787 1.89901 5.37239 1.60731 6.92864L1.60561 6.93772L1.6056 6.93773L1.60164 6.9589C1.19188 9.1441 0.880662 10.8038 0.824085 12.0977C0.7671 13.401 0.966188 14.3681 1.61001 15.144L1.61005 15.144C2.25387 15.9193 3.16766 16.2931 4.45904 16.4773C5.74223 16.6603 7.43253 16.6603 9.65872 16.6603H9.67495H10.3972H10.4134C12.6396 16.6603 14.3301 16.6603 15.6136 16.4773C16.9052 16.2931 17.8193 15.9193 18.4631 15.144L18.4631 15.144C19.1069 14.3681 19.306 13.401 19.249 12.0976C19.1925 10.8037 18.8813 9.14403 18.4716 6.95873L18.4675 6.93672L18.2855 6.97085L18.4675 6.93672L18.4656 6.92667C18.174 5.3714 17.952 4.18741 17.6622 3.27767C17.3703 2.3611 17.0033 1.70154 16.4086 1.20801C15.8144 0.714442 15.0985 0.475431 14.1437 0.357476C13.1967 0.240471 11.9926 0.240472 10.4115 0.240473H10.3982H9.67394H9.66064C8.07948 0.240472 6.87571 0.240471 5.92875 0.357477C4.97405 0.475439 4.25822 0.714466 3.66351 1.20801Z" fill="white" stroke="white" stroke-width="0.370373"/>
</svg>
