<svg width="61" height="61" viewBox="0 0 61 61" fill="none" xmlns="http://www.w3.org/2000/svg">
<g id="user" filter="url(#filter0_d_673_1004)">
<path id="Vector" d="M30.5 24.5C29.0562 24.5 27.8203 23.9859 26.7922 22.9578C25.7641 21.9297 25.25 20.6937 25.25 19.25C25.25 17.8062 25.7641 16.5703 26.7922 15.5422C27.8203 14.5141 29.0562 14 30.5 14C31.9438 14 33.1797 14.5141 34.2078 15.5422C35.2359 16.5703 35.75 17.8062 35.75 19.25C35.75 20.6937 35.2359 21.9297 34.2078 22.9578C33.1797 23.9859 31.9438 24.5 30.5 24.5ZM20 35V31.325C20 30.5813 20.1916 29.8979 20.5749 29.2749C20.9581 28.6519 21.4665 28.1759 22.1 27.8469C23.4562 27.1687 24.8344 26.6604 26.2344 26.3217C27.6344 25.9831 29.0562 25.8134 30.5 25.8125C31.9438 25.8116 33.3656 25.9814 34.7656 26.3217C36.1656 26.6621 37.5437 27.1705 38.9 27.8469C39.5344 28.175 40.0432 28.651 40.4264 29.2749C40.8097 29.8987 41.0009 30.5821 41 31.325V35H20Z" fill="#7519EB"/>
</g>
<defs>
<filter id="filter0_d_673_1004" x="-1.85715" y="-1.5" width="64" height="64" filterUnits="userSpaceOnUse" color-interpolation-filters="sRGB">
<feFlood flood-opacity="0" result="BackgroundImageFix"/>
<feColorMatrix in="SourceAlpha" type="matrix" values="0 0 0 0 0 0 0 0 0 0 0 0 0 0 0 0 0 0 127 0" result="hardAlpha"/>
<feOffset dy="6"/>
<feGaussianBlur stdDeviation="10"/>
<feColorMatrix type="matrix" values="0 0 0 0 0.458824 0 0 0 0 0.0980392 0 0 0 0 0.921569 0 0 0 0.4 0"/>
<feBlend mode="normal" in2="BackgroundImageFix" result="effect1_dropShadow_673_1004"/>
<feBlend mode="normal" in="SourceGraphic" in2="effect1_dropShadow_673_1004" result="shape"/>
</filter>
</defs>
</svg>
