<svg width="26" height="26" viewBox="0 0 26 26" fill="none" xmlns="http://www.w3.org/2000/svg">
<g id="wpf:in-transit">
<path id="Vector" d="M0 4V5H8V6H2V7H0V8H7V9H2V10H0V11H6V12H2V13H0V14H5V15H2V19C2 19.6 2.4 20 3 20H4C4.2 18.3 5.7 16.906 7.5 16.906C9.3 16.906 10.8 18.2 11 20H14C14.6 20 15 19.6 15 19V5C15 4.4 14.6 4 14 4H0ZM17 8C16.4 8 16 8.4 16 9V19C16 19.5 16.4 20 17 20C17.2 18.3 18.7 16.906 20.5 16.906C22.3 16.906 23.8 18.2 24 20H25C25.6 20 26 19.6 26 19V14C26 13.1 25.187 12 25.187 12L23 9C22.5 8.4 22.2 8 21.5 8H17ZM19 10H21.406C21.606 10 21.813 10.188 21.813 10.188L23.906 13.094C24.106 13.394 24.313 13.706 24.313 13.906H19V10ZM7.5 18.188C6.88738 18.1901 6.30043 18.4343 5.86714 18.8674C5.43386 19.3005 5.18937 19.8874 5.187 20.5C5.18911 21.1128 5.43348 21.6999 5.86679 22.1332C6.30011 22.5665 6.8872 22.8109 7.5 22.813C8.1128 22.8109 8.69989 22.5665 9.13321 22.1332C9.56652 21.6999 9.81089 21.1128 9.813 20.5C9.81089 19.8872 9.56652 19.3001 9.13321 18.8668C8.69989 18.4335 8.1128 18.1901 7.5 18.188ZM20.5 18.188C19.8874 18.1901 19.3004 18.4343 18.8671 18.8674C18.4339 19.3005 18.1894 19.8874 18.187 20.5C18.1891 21.1128 18.4335 21.6999 18.8668 22.1332C19.3001 22.5665 19.8872 22.8109 20.5 22.813C21.1128 22.8109 21.6999 22.5665 22.1332 22.1332C22.5665 21.6999 22.8109 21.1128 22.813 20.5C22.8109 19.8872 22.5665 19.3001 22.1332 18.8668C21.6999 18.4335 21.1128 18.1901 20.5 18.188Z" fill="#222222"/>
</g>
</svg>
